<svg width="20" height="20" viewBox="0 0 20 20" fill="none" xmlns="http://www.w3.org/2000/svg">
<path d="M12.5 18.3337V15.0003C12.6159 13.9564 12.3166 12.9088 11.6667 12.0837C14.1667 12.0837 16.6667 10.417 16.6667 7.50033C16.7333 6.45866 16.4417 5.43366 15.8333 4.58366C16.0667 3.62533 16.0667 2.62533 15.8333 1.66699C15.8333 1.66699 15 1.66699 13.3333 2.91699C11.1333 2.50033 8.86666 2.50033 6.66666 2.91699C4.99999 1.66699 4.16666 1.66699 4.16666 1.66699C3.91666 2.62533 3.91666 3.62533 4.16666 4.58366C3.55988 5.43023 3.26538 6.46098 3.33332 7.50033C3.33332 10.417 5.83332 12.0837 8.33332 12.0837C8.00832 12.492 7.76666 12.9587 7.62499 13.4587C7.48332 13.9587 7.44166 14.4837 7.49999 15.0003V18.3337" stroke="white" stroke-width="1.66667" stroke-linecap="round" stroke-linejoin="round"/>
<path d="M7.50008 14.9997C3.74175 16.6663 3.33341 13.333 1.66675 13.333" stroke="white" stroke-width="1.66667" stroke-linecap="round" stroke-linejoin="round"/>
</svg>
