<svg width="32" height="32" viewBox="0 0 32 32" fill="none" xmlns="http://www.w3.org/2000/svg">
<path d="M29.8701 11L25.8701 4.00001C25.782 3.8474 25.6551 3.72079 25.5023 3.63299C25.3496 3.54518 25.1763 3.49931 25.0001 3.50001H7.00007C6.82386 3.49931 6.6506 3.54518 6.49782 3.63299C6.34504 3.72079 6.21818 3.8474 6.13007 4.00001L2.13007 11C2.04213 11.1523 1.99592 11.3251 1.99609 11.501C1.99627 11.6769 2.04282 11.8496 2.13106 12.0017C2.2193 12.1539 2.34611 12.28 2.49868 12.3675C2.65125 12.455 2.8242 12.5007 3.00007 12.5H4.50007V25.5C4.50007 26.2957 4.81614 27.0587 5.37875 27.6213C5.94136 28.1839 6.70442 28.5 7.50007 28.5H24.5001C25.2957 28.5 26.0588 28.1839 26.6214 27.6213C27.184 27.0587 27.5001 26.2957 27.5001 25.5V12.5H29.0001C29.1759 12.5007 29.3489 12.455 29.5015 12.3675C29.654 12.28 29.7808 12.1539 29.8691 12.0017C29.9573 11.8496 30.0039 11.6769 30.0041 11.501C30.0042 11.3251 29.958 11.1523 29.8701 11ZM7.58007 5.50001H24.4201L27.2751 10.5H4.72507L7.58007 5.50001ZM25.5001 25.5C25.5001 25.7652 25.3947 26.0196 25.2072 26.2071C25.0196 26.3947 24.7653 26.5 24.5001 26.5H7.50007C7.23486 26.5 6.9805 26.3947 6.79297 26.2071C6.60543 26.0196 6.50007 25.7652 6.50007 25.5V12.5H25.5001V25.5Z" fill="white"/>
<path d="M11 23H21C21.2652 23 21.5196 22.8946 21.7071 22.7071C21.8946 22.5196 22 22.2652 22 22V16.5C22 16.2348 21.8946 15.9804 21.7071 15.7929C21.5196 15.6054 21.2652 15.5 21 15.5H11C10.7348 15.5 10.4804 15.6054 10.2929 15.7929C10.1054 15.9804 10 16.2348 10 16.5V22C10 22.2652 10.1054 22.5196 10.2929 22.7071C10.4804 22.8946 10.7348 23 11 23ZM12 17.5H20V21H12V17.5Z" fill="white"/>
</svg>
