<svg width="32" height="32" viewBox="0 0 32 32" fill="none" xmlns="http://www.w3.org/2000/svg">
<g clip-path="url(#clip0_21_49)">
<path d="M22.6667 5.33325C24.0726 5.33325 25.2243 6.42109 25.3261 7.8009L25.3334 7.99992V10.6666H26.6667C28.0726 10.6666 29.2243 11.7544 29.3261 13.1342L29.3334 13.3333V25.3333C29.3334 26.7391 28.2456 27.8908 26.8658 27.9926L26.6667 27.9999H21.3334C20.4223 27.9999 19.6179 27.543 19.1369 26.8458L19.0235 26.6666H5.33341C3.9276 26.6666 2.77586 25.5788 2.67406 24.1989L2.66675 23.9999V7.99992C2.66675 6.5941 3.75458 5.44236 5.1344 5.34057L5.33341 5.33325H22.6667ZM26.6667 13.3333H21.3334V25.3333H26.6667V13.3333ZM22.6667 7.99992H5.33341V23.9999H18.6667V13.3333C18.6667 11.8605 19.8606 10.6666 21.3334 10.6666H22.6667V7.99992Z" fill="white"/>
</g>
<defs>
<clipPath id="clip0_21_49">
<rect width="32" height="32" fill="white"/>
</clipPath>
</defs>
</svg>
