<svg width="32" height="32" viewBox="0 0 32 32" fill="none" xmlns="http://www.w3.org/2000/svg">
<path d="M16.0001 29.3332C12.4639 29.3332 9.07248 27.9284 6.57199 25.4279C4.07151 22.9274 2.66675 19.5361 2.66675 15.9998C2.66675 12.4636 4.07151 9.07223 6.57199 6.57175C9.07248 4.07126 12.4639 2.6665 16.0001 2.6665C19.5363 2.6665 22.9277 3.93079 25.4282 6.18122C27.9287 8.43166 29.3334 11.4839 29.3334 14.6665C29.3334 16.4346 28.631 18.1303 27.3808 19.3805C26.1305 20.6308 24.4349 21.3332 22.6667 21.3332H19.6667C19.2334 21.3332 18.8087 21.4538 18.44 21.6816C18.0714 21.9095 17.7735 22.2354 17.5798 22.623C17.386 23.0106 17.3039 23.4445 17.3428 23.876C17.3818 24.3076 17.5401 24.7198 17.8001 25.0665L18.2001 25.5998C18.4601 25.9465 18.6184 26.3587 18.6573 26.7903C18.6962 27.2219 18.6142 27.6558 18.4204 28.0433C18.2266 28.4309 17.9287 28.7569 17.5601 28.9847C17.1915 29.2125 16.7667 29.3332 16.3334 29.3332H16.0001Z" stroke="white" stroke-width="2.66667" stroke-linecap="round" stroke-linejoin="round"/>
<path d="M17.9999 9.33333C18.3681 9.33333 18.6666 9.03486 18.6666 8.66667C18.6666 8.29848 18.3681 8 17.9999 8C17.6317 8 17.3333 8.29848 17.3333 8.66667C17.3333 9.03486 17.6317 9.33333 17.9999 9.33333Z" fill="white" stroke="white" stroke-width="2.66667" stroke-linecap="round" stroke-linejoin="round"/>
<path d="M23.3334 14.6668C23.7016 14.6668 24.0001 14.3684 24.0001 14.0002C24.0001 13.632 23.7016 13.3335 23.3334 13.3335C22.9652 13.3335 22.6667 13.632 22.6667 14.0002C22.6667 14.3684 22.9652 14.6668 23.3334 14.6668Z" fill="white" stroke="white" stroke-width="2.66667" stroke-linecap="round" stroke-linejoin="round"/>
<path d="M8.66667 17.3333C9.03486 17.3333 9.33333 17.0349 9.33333 16.6667C9.33333 16.2985 9.03486 16 8.66667 16C8.29848 16 8 16.2985 8 16.6667C8 17.0349 8.29848 17.3333 8.66667 17.3333Z" fill="white" stroke="white" stroke-width="2.66667" stroke-linecap="round" stroke-linejoin="round"/>
<path d="M11.3334 10.6668C11.7016 10.6668 12.0001 10.3684 12.0001 10.0002C12.0001 9.63197 11.7016 9.3335 11.3334 9.3335C10.9652 9.3335 10.6667 9.63197 10.6667 10.0002C10.6667 10.3684 10.9652 10.6668 11.3334 10.6668Z" fill="white" stroke="white" stroke-width="2.66667" stroke-linecap="round" stroke-linejoin="round"/>
</svg>
